<mxfile host="app.diagrams.net" agent="Mozilla/5.0 (Windows NT 10.0; Win64; x64) AppleWebKit/537.36 (KHTML, like Gecko) Chrome/131.0.0.0 Safari/537.36" version="25.0.3">
  <diagram name="Seite-1" id="9Y6po_K6ZHVBNi66Xl9g">
    <mxGraphModel dx="666" dy="611" grid="1" gridSize="10" guides="1" tooltips="1" connect="1" arrows="1" fold="1" page="1" pageScale="1" pageWidth="1654" pageHeight="1169" math="0" shadow="0">
      <root>
        <mxCell id="0" />
        <mxCell id="1" parent="0" />
        <mxCell id="Z6pA212_5qfOtzWDxAs7-23" value="" style="group" vertex="1" connectable="0" parent="1">
          <mxGeometry x="720" y="480" width="210" height="90" as="geometry" />
        </mxCell>
        <mxCell id="Z6pA212_5qfOtzWDxAs7-4" value="Anschlusskabel" style="rounded=0;whiteSpace=wrap;html=1;fillColor=#f5f5f5;fontColor=#333333;strokeColor=#666666;" vertex="1" parent="Z6pA212_5qfOtzWDxAs7-23">
          <mxGeometry y="30" width="120" height="40" as="geometry" />
        </mxCell>
        <mxCell id="Z6pA212_5qfOtzWDxAs7-5" value="" style="endArrow=none;html=1;rounded=0;fillColor=#f8cecc;strokeColor=#b85450;" edge="1" parent="Z6pA212_5qfOtzWDxAs7-23">
          <mxGeometry width="50" height="50" relative="1" as="geometry">
            <mxPoint x="120" y="35" as="sourcePoint" />
            <mxPoint x="130" y="35" as="targetPoint" />
          </mxGeometry>
        </mxCell>
        <mxCell id="Z6pA212_5qfOtzWDxAs7-6" value="" style="endArrow=none;html=1;rounded=0;" edge="1" parent="Z6pA212_5qfOtzWDxAs7-23">
          <mxGeometry width="50" height="50" relative="1" as="geometry">
            <mxPoint x="120" y="45" as="sourcePoint" />
            <mxPoint x="130" y="45" as="targetPoint" />
          </mxGeometry>
        </mxCell>
        <mxCell id="Z6pA212_5qfOtzWDxAs7-7" value="" style="endArrow=none;html=1;rounded=0;fillColor=#f5f5f5;strokeColor=#E6E6E6;" edge="1" parent="Z6pA212_5qfOtzWDxAs7-23">
          <mxGeometry width="50" height="50" relative="1" as="geometry">
            <mxPoint x="120" y="54.92999999999995" as="sourcePoint" />
            <mxPoint x="130" y="54.92999999999995" as="targetPoint" />
          </mxGeometry>
        </mxCell>
        <mxCell id="Z6pA212_5qfOtzWDxAs7-8" value="" style="endArrow=none;html=1;rounded=0;fillColor=#d5e8d4;strokeColor=#82b366;" edge="1" parent="Z6pA212_5qfOtzWDxAs7-23">
          <mxGeometry width="50" height="50" relative="1" as="geometry">
            <mxPoint x="120" y="64.87" as="sourcePoint" />
            <mxPoint x="130" y="64.87" as="targetPoint" />
          </mxGeometry>
        </mxCell>
        <mxCell id="Z6pA212_5qfOtzWDxAs7-9" value="" style="endArrow=none;html=1;rounded=0;fillColor=#f8cecc;strokeColor=#b85450;" edge="1" parent="Z6pA212_5qfOtzWDxAs7-23">
          <mxGeometry width="50" height="50" relative="1" as="geometry">
            <mxPoint x="130" y="35" as="sourcePoint" />
            <mxPoint x="150" y="10" as="targetPoint" />
          </mxGeometry>
        </mxCell>
        <mxCell id="Z6pA212_5qfOtzWDxAs7-10" value="" style="endArrow=none;html=1;rounded=0;" edge="1" parent="Z6pA212_5qfOtzWDxAs7-23">
          <mxGeometry width="50" height="50" relative="1" as="geometry">
            <mxPoint x="130" y="45" as="sourcePoint" />
            <mxPoint x="150" y="30" as="targetPoint" />
          </mxGeometry>
        </mxCell>
        <mxCell id="Z6pA212_5qfOtzWDxAs7-11" value="" style="endArrow=none;html=1;rounded=0;fillColor=#f5f5f5;strokeColor=#E6E6E6;" edge="1" parent="Z6pA212_5qfOtzWDxAs7-23">
          <mxGeometry width="50" height="50" relative="1" as="geometry">
            <mxPoint x="130" y="54.5" as="sourcePoint" />
            <mxPoint x="150" y="70" as="targetPoint" />
          </mxGeometry>
        </mxCell>
        <mxCell id="Z6pA212_5qfOtzWDxAs7-12" value="" style="endArrow=none;html=1;rounded=0;fillColor=#d5e8d4;strokeColor=#82b366;" edge="1" parent="Z6pA212_5qfOtzWDxAs7-23">
          <mxGeometry width="50" height="50" relative="1" as="geometry">
            <mxPoint x="130" y="65" as="sourcePoint" />
            <mxPoint x="150" y="90" as="targetPoint" />
          </mxGeometry>
        </mxCell>
        <mxCell id="Z6pA212_5qfOtzWDxAs7-13" value="" style="endArrow=none;html=1;rounded=0;fillColor=#f8cecc;strokeColor=#b85450;" edge="1" parent="Z6pA212_5qfOtzWDxAs7-23">
          <mxGeometry width="50" height="50" relative="1" as="geometry">
            <mxPoint x="150" y="10" as="sourcePoint" />
            <mxPoint x="210" y="10" as="targetPoint" />
          </mxGeometry>
        </mxCell>
        <mxCell id="Z6pA212_5qfOtzWDxAs7-16" value="" style="endArrow=none;html=1;rounded=0;" edge="1" parent="Z6pA212_5qfOtzWDxAs7-23">
          <mxGeometry width="50" height="50" relative="1" as="geometry">
            <mxPoint x="150" y="30" as="sourcePoint" />
            <mxPoint x="210" y="30" as="targetPoint" />
          </mxGeometry>
        </mxCell>
        <mxCell id="Z6pA212_5qfOtzWDxAs7-17" value="" style="endArrow=none;html=1;rounded=0;fillColor=#f5f5f5;strokeColor=#E6E6E6;" edge="1" parent="Z6pA212_5qfOtzWDxAs7-23">
          <mxGeometry width="50" height="50" relative="1" as="geometry">
            <mxPoint x="150" y="70" as="sourcePoint" />
            <mxPoint x="210" y="70" as="targetPoint" />
          </mxGeometry>
        </mxCell>
        <mxCell id="Z6pA212_5qfOtzWDxAs7-18" value="" style="endArrow=none;html=1;rounded=0;fillColor=#d5e8d4;strokeColor=#82b366;" edge="1" parent="Z6pA212_5qfOtzWDxAs7-23">
          <mxGeometry width="50" height="50" relative="1" as="geometry">
            <mxPoint x="150" y="90" as="sourcePoint" />
            <mxPoint x="210" y="90" as="targetPoint" />
          </mxGeometry>
        </mxCell>
        <mxCell id="Z6pA212_5qfOtzWDxAs7-19" value="24V" style="text;html=1;align=center;verticalAlign=middle;whiteSpace=wrap;rounded=0;fontSize=8;" vertex="1" parent="Z6pA212_5qfOtzWDxAs7-23">
          <mxGeometry x="180" width="20" height="10" as="geometry" />
        </mxCell>
        <mxCell id="Z6pA212_5qfOtzWDxAs7-20" value="GND" style="text;html=1;align=center;verticalAlign=middle;whiteSpace=wrap;rounded=0;fontSize=8;" vertex="1" parent="Z6pA212_5qfOtzWDxAs7-23">
          <mxGeometry x="180" y="20" width="20" height="10" as="geometry" />
        </mxCell>
        <mxCell id="Z6pA212_5qfOtzWDxAs7-21" value="RS485+" style="text;html=1;align=center;verticalAlign=middle;whiteSpace=wrap;rounded=0;fontSize=8;" vertex="1" parent="Z6pA212_5qfOtzWDxAs7-23">
          <mxGeometry x="175" y="60" width="30" height="10" as="geometry" />
        </mxCell>
        <mxCell id="Z6pA212_5qfOtzWDxAs7-22" value="RS485-" style="text;html=1;align=center;verticalAlign=middle;whiteSpace=wrap;rounded=0;fontSize=8;" vertex="1" parent="Z6pA212_5qfOtzWDxAs7-23">
          <mxGeometry x="175" y="80" width="30" height="10" as="geometry" />
        </mxCell>
        <mxCell id="Z6pA212_5qfOtzWDxAs7-72" value="" style="group" vertex="1" connectable="0" parent="1">
          <mxGeometry x="1080" y="360" width="50" height="350" as="geometry" />
        </mxCell>
        <mxCell id="Z6pA212_5qfOtzWDxAs7-25" value="" style="rounded=0;whiteSpace=wrap;html=1;fillColor=#f5f5f5;fontColor=#333333;strokeColor=#666666;" vertex="1" parent="Z6pA212_5qfOtzWDxAs7-72">
          <mxGeometry width="50" height="350" as="geometry" />
        </mxCell>
        <mxCell id="Z6pA212_5qfOtzWDxAs7-28" value="07" style="whiteSpace=wrap;html=1;aspect=fixed;fillColor=#ffe6cc;strokeColor=#d79b00;fontSize=10;" vertex="1" parent="Z6pA212_5qfOtzWDxAs7-72">
          <mxGeometry x="5" y="5" width="17" height="17" as="geometry" />
        </mxCell>
        <mxCell id="Z6pA212_5qfOtzWDxAs7-30" value="08" style="whiteSpace=wrap;html=1;aspect=fixed;fillColor=#ffe6cc;strokeColor=#d79b00;fontSize=10;" vertex="1" parent="Z6pA212_5qfOtzWDxAs7-72">
          <mxGeometry x="28" y="5" width="17" height="17" as="geometry" />
        </mxCell>
        <mxCell id="Z6pA212_5qfOtzWDxAs7-31" value="" style="ellipse;whiteSpace=wrap;html=1;aspect=fixed;fillColor=#d5e8d4;strokeColor=#82b366;" vertex="1" parent="Z6pA212_5qfOtzWDxAs7-72">
          <mxGeometry x="6.5" y="30" width="15" height="15" as="geometry" />
        </mxCell>
        <mxCell id="Z6pA212_5qfOtzWDxAs7-32" value="" style="ellipse;whiteSpace=wrap;html=1;aspect=fixed;fillColor=#67AB9F;strokeColor=#82b366;" vertex="1" parent="Z6pA212_5qfOtzWDxAs7-72">
          <mxGeometry x="28" y="30" width="15" height="15" as="geometry" />
        </mxCell>
        <mxCell id="Z6pA212_5qfOtzWDxAs7-33" value="" style="ellipse;whiteSpace=wrap;html=1;aspect=fixed;fillColor=#d5e8d4;strokeColor=#82b366;" vertex="1" parent="Z6pA212_5qfOtzWDxAs7-72">
          <mxGeometry x="28" y="50" width="15" height="15" as="geometry" />
        </mxCell>
        <mxCell id="Z6pA212_5qfOtzWDxAs7-34" value="" style="ellipse;whiteSpace=wrap;html=1;aspect=fixed;fillColor=#d5e8d4;strokeColor=#82b366;" vertex="1" parent="Z6pA212_5qfOtzWDxAs7-72">
          <mxGeometry x="7" y="50" width="15" height="15" as="geometry" />
        </mxCell>
        <mxCell id="Z6pA212_5qfOtzWDxAs7-35" value="" style="ellipse;whiteSpace=wrap;html=1;aspect=fixed;fillColor=#E6E6E6;strokeColor=#666666;fontColor=#333333;" vertex="1" parent="Z6pA212_5qfOtzWDxAs7-72">
          <mxGeometry x="8.5" y="103" width="12" height="12" as="geometry" />
        </mxCell>
        <mxCell id="Z6pA212_5qfOtzWDxAs7-36" value="" style="ellipse;whiteSpace=wrap;html=1;aspect=fixed;fillColor=#E6E6E6;strokeColor=#666666;fontColor=#333333;" vertex="1" parent="Z6pA212_5qfOtzWDxAs7-72">
          <mxGeometry x="29.5" y="103" width="12" height="12" as="geometry" />
        </mxCell>
        <mxCell id="Z6pA212_5qfOtzWDxAs7-38" value="TxD+" style="rounded=0;whiteSpace=wrap;html=1;fontSize=6;fillColor=#cdeb8b;strokeColor=#36393d;" vertex="1" parent="Z6pA212_5qfOtzWDxAs7-72">
          <mxGeometry x="5.5" y="89" width="18" height="10" as="geometry" />
        </mxCell>
        <mxCell id="Z6pA212_5qfOtzWDxAs7-39" value="TxD-" style="rounded=0;whiteSpace=wrap;html=1;fontSize=6;fillColor=#cdeb8b;strokeColor=#36393d;" vertex="1" parent="Z6pA212_5qfOtzWDxAs7-72">
          <mxGeometry x="27" y="89" width="18" height="10" as="geometry" />
        </mxCell>
        <mxCell id="Z6pA212_5qfOtzWDxAs7-40" value="" style="ellipse;whiteSpace=wrap;html=1;aspect=fixed;fillColor=#E6E6E6;strokeColor=#666666;fontColor=#333333;" vertex="1" parent="Z6pA212_5qfOtzWDxAs7-72">
          <mxGeometry x="8.25" y="144" width="12" height="12" as="geometry" />
        </mxCell>
        <mxCell id="Z6pA212_5qfOtzWDxAs7-41" value="" style="ellipse;whiteSpace=wrap;html=1;aspect=fixed;fillColor=#E6E6E6;strokeColor=#666666;fontColor=#333333;" vertex="1" parent="Z6pA212_5qfOtzWDxAs7-72">
          <mxGeometry x="29.25" y="144" width="12" height="12" as="geometry" />
        </mxCell>
        <mxCell id="Z6pA212_5qfOtzWDxAs7-42" value="RxD+" style="rounded=0;whiteSpace=wrap;html=1;fontSize=6;fillColor=#cdeb8b;strokeColor=#36393d;" vertex="1" parent="Z6pA212_5qfOtzWDxAs7-72">
          <mxGeometry x="5.25" y="130" width="18" height="10" as="geometry" />
        </mxCell>
        <mxCell id="Z6pA212_5qfOtzWDxAs7-43" value="RxD-" style="rounded=0;whiteSpace=wrap;html=1;fontSize=6;fillColor=#cdeb8b;strokeColor=#36393d;" vertex="1" parent="Z6pA212_5qfOtzWDxAs7-72">
          <mxGeometry x="26.75" y="130" width="18" height="10" as="geometry" />
        </mxCell>
        <mxCell id="Z6pA212_5qfOtzWDxAs7-44" value="" style="ellipse;whiteSpace=wrap;html=1;aspect=fixed;fillColor=#E6E6E6;strokeColor=#666666;fontColor=#333333;" vertex="1" parent="Z6pA212_5qfOtzWDxAs7-72">
          <mxGeometry x="8.5" y="198" width="12" height="12" as="geometry" />
        </mxCell>
        <mxCell id="Z6pA212_5qfOtzWDxAs7-45" value="" style="ellipse;whiteSpace=wrap;html=1;aspect=fixed;fillColor=#E6E6E6;strokeColor=#666666;fontColor=#333333;" vertex="1" parent="Z6pA212_5qfOtzWDxAs7-72">
          <mxGeometry x="29.5" y="198" width="12" height="12" as="geometry" />
        </mxCell>
        <mxCell id="Z6pA212_5qfOtzWDxAs7-46" value="GND" style="rounded=0;whiteSpace=wrap;html=1;fontSize=6;fillColor=#cce5ff;strokeColor=#36393d;" vertex="1" parent="Z6pA212_5qfOtzWDxAs7-72">
          <mxGeometry x="5.5" y="184" width="18" height="10" as="geometry" />
        </mxCell>
        <mxCell id="Z6pA212_5qfOtzWDxAs7-47" value="GND" style="rounded=0;whiteSpace=wrap;html=1;fontSize=6;fillColor=#cce5ff;strokeColor=#36393d;" vertex="1" parent="Z6pA212_5qfOtzWDxAs7-72">
          <mxGeometry x="27" y="184" width="18" height="10" as="geometry" />
        </mxCell>
        <mxCell id="Z6pA212_5qfOtzWDxAs7-48" value="" style="ellipse;whiteSpace=wrap;html=1;aspect=fixed;fillColor=#E6E6E6;strokeColor=#666666;fontColor=#333333;" vertex="1" parent="Z6pA212_5qfOtzWDxAs7-72">
          <mxGeometry x="8.5" y="254" width="12" height="12" as="geometry" />
        </mxCell>
        <mxCell id="Z6pA212_5qfOtzWDxAs7-49" value="" style="ellipse;whiteSpace=wrap;html=1;aspect=fixed;fillColor=#E6E6E6;strokeColor=#666666;fontColor=#333333;" vertex="1" parent="Z6pA212_5qfOtzWDxAs7-72">
          <mxGeometry x="29.5" y="254" width="12" height="12" as="geometry" />
        </mxCell>
        <mxCell id="Z6pA212_5qfOtzWDxAs7-50" value="S" style="rounded=0;whiteSpace=wrap;html=1;fontSize=6;fillColor=#fad7ac;strokeColor=#b46504;" vertex="1" parent="Z6pA212_5qfOtzWDxAs7-72">
          <mxGeometry x="5.5" y="240" width="18" height="10" as="geometry" />
        </mxCell>
        <mxCell id="Z6pA212_5qfOtzWDxAs7-51" value="S" style="rounded=0;whiteSpace=wrap;html=1;fontSize=6;fillColor=#fad7ac;strokeColor=#b46504;" vertex="1" parent="Z6pA212_5qfOtzWDxAs7-72">
          <mxGeometry x="27" y="240" width="18" height="10" as="geometry" />
        </mxCell>
        <mxCell id="Z6pA212_5qfOtzWDxAs7-70" value="KL6041" style="text;html=1;align=center;verticalAlign=middle;whiteSpace=wrap;rounded=0;fontSize=6;" vertex="1" parent="Z6pA212_5qfOtzWDxAs7-72">
          <mxGeometry y="327" width="30" height="10" as="geometry" />
        </mxCell>
        <mxCell id="Z6pA212_5qfOtzWDxAs7-71" value="BECKHOFF" style="text;html=1;align=center;verticalAlign=middle;whiteSpace=wrap;rounded=0;fontSize=6;fontStyle=1" vertex="1" parent="Z6pA212_5qfOtzWDxAs7-72">
          <mxGeometry x="6" y="337" width="30" height="10" as="geometry" />
        </mxCell>
        <mxCell id="Z6pA212_5qfOtzWDxAs7-73" value="" style="endArrow=none;html=1;rounded=0;startSize=7;endSize=7;endFill=0;startArrow=oval;startFill=1;" edge="1" parent="1">
          <mxGeometry width="50" height="50" relative="1" as="geometry">
            <mxPoint x="1095" y="469" as="sourcePoint" />
            <mxPoint x="1060" y="469" as="targetPoint" />
          </mxGeometry>
        </mxCell>
        <mxCell id="Z6pA212_5qfOtzWDxAs7-74" value="" style="endArrow=none;html=1;rounded=0;startSize=7;endSize=7;endFill=0;startArrow=oval;startFill=1;" edge="1" parent="1">
          <mxGeometry width="50" height="50" relative="1" as="geometry">
            <mxPoint x="1094" y="510" as="sourcePoint" />
            <mxPoint x="1060" y="510" as="targetPoint" />
          </mxGeometry>
        </mxCell>
        <mxCell id="Z6pA212_5qfOtzWDxAs7-75" value="" style="endArrow=none;html=1;rounded=0;startSize=7;endSize=7;endFill=0;startArrow=oval;startFill=1;" edge="1" parent="1">
          <mxGeometry width="50" height="50" relative="1" as="geometry">
            <mxPoint x="1115" y="469.00454545454573" as="sourcePoint" />
            <mxPoint x="1150" y="469.00454545454573" as="targetPoint" />
          </mxGeometry>
        </mxCell>
        <mxCell id="Z6pA212_5qfOtzWDxAs7-76" value="" style="endArrow=oval;html=1;rounded=0;startSize=7;endSize=4;endFill=1;startArrow=oval;startFill=1;" edge="1" parent="1">
          <mxGeometry width="50" height="50" relative="1" as="geometry">
            <mxPoint x="1115" y="510.00454545454573" as="sourcePoint" />
            <mxPoint x="1150" y="510.00454545454573" as="targetPoint" />
          </mxGeometry>
        </mxCell>
        <mxCell id="Z6pA212_5qfOtzWDxAs7-77" value="" style="endArrow=none;html=1;rounded=0;" edge="1" parent="1">
          <mxGeometry width="50" height="50" relative="1" as="geometry">
            <mxPoint x="1000" y="469" as="sourcePoint" />
            <mxPoint x="1060" y="469" as="targetPoint" />
          </mxGeometry>
        </mxCell>
        <mxCell id="Z6pA212_5qfOtzWDxAs7-78" value="" style="endArrow=none;html=1;rounded=0;" edge="1" parent="1">
          <mxGeometry width="50" height="50" relative="1" as="geometry">
            <mxPoint x="1150" y="469" as="sourcePoint" />
            <mxPoint x="1150" y="530" as="targetPoint" />
          </mxGeometry>
        </mxCell>
        <mxCell id="Z6pA212_5qfOtzWDxAs7-79" value="" style="endArrow=none;html=1;rounded=0;" edge="1" parent="1">
          <mxGeometry width="50" height="50" relative="1" as="geometry">
            <mxPoint x="1040" y="530" as="sourcePoint" />
            <mxPoint x="1150" y="530" as="targetPoint" />
          </mxGeometry>
        </mxCell>
        <mxCell id="Z6pA212_5qfOtzWDxAs7-81" value="" style="endArrow=none;html=1;rounded=0;endFill=0;startArrow=oval;startFill=1;startSize=3;" edge="1" parent="1">
          <mxGeometry width="50" height="50" relative="1" as="geometry">
            <mxPoint x="930" y="570" as="sourcePoint" />
            <mxPoint x="1040" y="570" as="targetPoint" />
          </mxGeometry>
        </mxCell>
        <mxCell id="Z6pA212_5qfOtzWDxAs7-82" value="" style="endArrow=none;html=1;rounded=0;" edge="1" parent="1">
          <mxGeometry width="50" height="50" relative="1" as="geometry">
            <mxPoint x="1040" y="530" as="sourcePoint" />
            <mxPoint x="1040" y="570" as="targetPoint" />
          </mxGeometry>
        </mxCell>
        <mxCell id="Z6pA212_5qfOtzWDxAs7-83" value="" style="endArrow=none;html=1;rounded=0;" edge="1" parent="1">
          <mxGeometry width="50" height="50" relative="1" as="geometry">
            <mxPoint x="1000" y="469" as="sourcePoint" />
            <mxPoint x="1000" y="550" as="targetPoint" />
          </mxGeometry>
        </mxCell>
        <mxCell id="Z6pA212_5qfOtzWDxAs7-84" value="" style="endArrow=none;html=1;rounded=0;endFill=0;startArrow=oval;startFill=1;startSize=3;" edge="1" parent="1">
          <mxGeometry width="50" height="50" relative="1" as="geometry">
            <mxPoint x="930" y="550" as="sourcePoint" />
            <mxPoint x="1000" y="550" as="targetPoint" />
          </mxGeometry>
        </mxCell>
        <mxCell id="Z6pA212_5qfOtzWDxAs7-80" value="" style="endArrow=none;html=1;rounded=0;endFill=0;startArrow=oval;startFill=1;endSize=4;startSize=4;" edge="1" parent="1">
          <mxGeometry width="50" height="50" relative="1" as="geometry">
            <mxPoint x="1060" y="469" as="sourcePoint" />
            <mxPoint x="1060" y="510" as="targetPoint" />
          </mxGeometry>
        </mxCell>
      </root>
    </mxGraphModel>
  </diagram>
</mxfile>
